# xmcd
#
# Track frame offsets: 
#        150
#        11864
#        28914
#        40684
#        54599
#        67880
#        80834
#        95209
#        107139
#        117989
#        129884
#        141438
#        156315
#        161195
#
# Disc length: 2333 seconds
#
# Revision: 0
# Processed by: cddbd v1.5.2PL0 Copyright (c) Steve Scherf et al.
# Submitted via: ExactAudioCopy v1.3
#
DISCID=c9091b0e
DTITLE=Doghouse Sam and His Magnatones - Knock Knock
DYEAR=2014
DGENRE=Blues, Western Swing
TTITLE0=Something's Wrong
TTITLE1=Kings and Queens
TTITLE2=Knock Knock
TTITLE3=Road
TTITLE4=All I Need Outta You
TTITLE5=Doghouse Boogie
TTITLE6=All It Takes
TTITLE7=Time Takes Care
TTITLE8=Ce Qui Est Fait, Est Fait
TTITLE9=Scratch A Lie
TTITLE10=You Snooze, You Lose
TTITLE11=Fine Ain't Good Enough
TTITLE12=Tell A Tale
TTITLE13=Walkin' Stardust
EXTD=
EXTT0=
EXTT1=
EXTT2=
EXTT3=
EXTT4=
EXTT5=
EXTT6=
EXTT7=
EXTT8=
EXTT9=
EXTT10=
EXTT11=
EXTT12=
EXTT13=
PLAYORDER=
